# xmcd
#
# Track frame offsets:
#	150
#	16757
#	34467
#	52310
#	64714
#	77597
#	94312
#	108615
#	123047
#	140160
#	156387
#	173875
#	188507
#	203707
#	219955
#
# Disc length: 3194 seconds
#
# Revision: 1
# Processed by: cddbd v1.5.2PL0 Copyright (c) Steve Scherf et al.
# Submitted via: audiograbber 1.83.01
#
DISCID=d30c780f
DTITLE=Various Artist - SC8421
DYEAR=1900
DGENRE=Country
TTITLE0=George Strait - What's Going On In Your World
TTITLE1=Kenny Rogers - Twenty Years Ago
TTITLE2=Randy Travis - I Told You So
TTITLE3=John Conlee - Busted
TTITLE4=Marie Osmond - Paper Roses
TTITLE5=Glen Cambell - Southern Nights
TTITLE6=Emmylou Harris - Two More Bottles Of Wine
TTITLE7=Don Williams - Some Broken Hearts Never Mend
TTITLE8=Merle Haggard - It;s Not Love (But It's Not Bad)
TTITLE9=Don Gibson - Touch The Morning
TTITLE10=Reba McEntire - Only In My Mind
TTITLE11=Mickey Gilley - True Love Ways
TTITLE12=George Straight - Overnight Success
TTITLE13=Earl Thomas Conlet - Right From The Start
TTITLE14=Kathy Mattea - Walk The Way The Wind...
EXTD=
EXTT0=
EXTT1=
EXTT2=
EXTT3=
EXTT4=
EXTT5=
EXTT6=
EXTT7=
EXTT8=
EXTT9=
EXTT10=
EXTT11=
EXTT12=
EXTT13=
EXTT14=
PLAYORDER=
